# vtk DataFile Version 3.0
slug_compare
ASCII
DATASET POLYDATA
POINTS 338 float
-18.866158 -3.569676 1.477532
-18.866024 -2.731459 2.732265
-18.865854 -1.476727 3.570482
-18.865721 -3.864020 -0.002589
-18.865158 0.003394 3.864828
-18.864778 -3.569675 -1.482710
-18.864043 1.483515 3.570484
-18.863475 -2.731458 -2.737442
-18.862679 2.738248 2.732268
-18.862522 -1.476725 -3.575658
-18.861787 3.576465 1.477535
-18.861553 0.003396 -3.870003
-18.860990 3.870810 -0.002586
-18.860712 1.483516 -3.575657
-18.860407 3.576465 -1.482707
-18.860129 2.738249 -2.737440
-18.854680 -1.948794 1.949599
-18.853992 -2.460859 1.062638
-18.853789 -1.061834 2.461664
-18.853464 -2.659340 -0.002583
-18.853077 0.003387 2.660146
-18.852999 -2.460859 -1.067804
-18.852860 -1.948793 -1.954765
-18.852485 1.068608 2.461665
-18.852292 1.955570 1.949600
-18.851491 -1.061833 -2.466830
-18.850978 2.467634 1.062640
-18.850595 0.003388 -2.665310
-18.850471 1.955570 -1.954763
-18.850333 -1.474993 1.475798
-18.850207 2.666116 -0.002581
-18.850188 1.068609 -2.466829
-18.849984 2.467635 -1.067802
-18.848955 -1.474993 -1.480960
-18.848858 -1.654279 0.852915
-18.848741 -0.852111 1.655084
-18.848524 1.481764 1.475799
-18.848060 -1.654279 -0.858077
-18.847720 -1.709488 -0.002580
-18.847695 0.858881 1.655085
-18.847471 0.003384 1.710293
-18.847196 -0.852110 -1.660245
-18.847146 1.481765 -1.480959
-18.846830 1.661049 0.852917
-18.846149 0.858881 -1.660244
-18.846033 1.661049 -0.858075
-18.845874 0.003385 -1.715452
-18.845640 -0.833502 0.834306
-18.845624 1.716257 -0.002579
-18.844859 -0.833501 -0.839464
-18.844616 0.840268 0.834307
-18.844387 -0.866525 -0.002579
-18.844261 0.003383 0.867330
-18.843836 0.840269 -0.839463
-18.843450 0.003383 -0.872486
-18.843323 0.873291 -0.002578
-18.842846 0.003382 -0.002578
-16.359924 -2.754537 2.754978
-16.359871 -3.599389 1.490415
-16.359564 -1.489974 3.599831
-16.359348 -3.896103 -0.001421
-16.358781 0.001861 3.896546
-16.358480 -3.599389 -1.493256
-16.357739 1.493696 3.599833
-16.357354 -2.754536 -2.757819
-16.356552 2.758260 2.754981
-16.356207 -1.489973 -3.602671
-16.355466 3.603112 1.490418
-16.355146 0.001863 -3.899384
-16.354579 3.899827 -0.001417
-16.354382 1.493698 -3.602669
-16.354075 3.603113 -1.493253
-16.353982 2.758261 -2.757816
-13.933095 -2.814780 2.814868
-13.932741 -3.676866 1.523492
-13.932428 -1.523405 3.676955
-13.932078 -3.979620 -0.000289
-13.931499 0.000376 3.979710
-13.931321 -3.676865 -1.524071
-13.930564 1.524158 3.676956
-13.930470 -2.814779 -2.815446
-13.929651 2.815534 2.814871
-13.929000 -1.523403 -3.677531
-13.928243 3.677620 1.523495
-13.927788 0.000378 -3.980285
-13.927210 3.980374 -0.000286
-13.927136 1.524159 -3.677530
-13.927027 2.815535 -2.815444
-13.926822 3.677620 -1.524067
-11.642618 -2.904227 2.903982
-11.642091 -3.792497 1.572071
-11.641768 -1.572316 3.792252
-11.641393 -4.104249 0.000778
-11.640796 -0.001025 4.104006
-11.640626 -3.792496 -1.570513
-11.639911 -2.904226 -2.902425
-11.639846 1.570267 3.792254
-11.639066 2.902179 2.903985
-11.638234 -1.572315 -3.790693
-11.637453 3.790448 1.572074
-11.636970 -0.001023 -4.102445
-11.636373 4.102201 0.000782
-11.636359 2.902180 -2.902422
-11.636311 1.570269 -3.790692
-11.635988 3.790449 -1.570510
-9.532137 -3.013730 3.013178
-9.531532 -3.934997 1.631526
-9.531197 -1.632079 3.934446
-9.530846 -4.258195 0.001762
-9.530226 -0.002316 4.257645
-9.530012 -3.934997 -1.628001
-9.529329 -3.013729 -3.009652
-9.529203 1.627448 3.934448
-9.528453 3.009100 3.013180
-9.527530 -1.632078 -3.930919
-9.526721 3.930367 1.631530
-9.526259 -0.002314 -4.254116
-9.525645 3.009101 -3.009650
-9.525639 4.253565 0.001766
-9.525537 1.627450 -3.930918
-9.525202 3.930368 -1.627998
-7.632040 -3.135396 3.134568
-7.631434 -4.093789 1.697573
-7.631086 -1.698402 4.092961
-7.630856 -4.429938 0.002648
-7.630212 -0.003478 4.429112
-7.629854 -4.093788 -1.692276
-7.629120 -3.135395 -3.129271
-7.629013 1.691447 4.092962
-7.628208 3.128442 3.134571
-7.627272 -1.698401 -4.087662
-7.626431 4.086834 1.697577
-7.626085 -0.003476 -4.423811
-7.625442 4.422984 0.002652
-7.625288 3.128443 -3.129268
-7.625199 1.691448 -4.087661
-7.624851 4.086835 -1.692273
-5.959970 -3.262805 3.261733
-5.959387 -4.259962 1.766679
-5.959025 -1.767752 4.258891
-5.958947 -4.609595 0.003427
-5.958277 -0.004501 4.608526
-5.957743 -4.259961 -1.759824
-5.956932 -3.262803 -3.254877
-5.956868 1.758751 4.258893
-5.955984 3.253804 3.261736
-5.955057 -1.767751 -4.252033
-5.954182 4.250962 1.766683
-5.953984 -0.004499 -4.601667
-5.953314 4.600596 0.003432
-5.952946 3.253806 -3.254874
-5.952900 1.758753 -4.252032
-5.952538 4.250962 -1.759820
-4.522946 -3.390934 3.389653
-4.522356 -4.426886 1.836162
-4.521979 -1.837444 4.425606
-4.521963 -4.789848 0.004097
-4.521267 -0.005380 4.788569
-4.520647 -4.426886 -1.827967
-4.519789 -3.390933 -3.381458
-4.519738 1.826685 4.425608
-4.518804 3.380176 3.389657
-4.517857 -1.837443 -4.417409
-4.516947 4.416128 1.836166
-4.516807 -0.005378 -4.780371
-4.516111 4.779091 0.004102
-4.515648 3.380177 -3.381455
-4.515615 1.826687 -4.417407
-4.515239 4.416129 -1.827963
-3.318745 -3.515045 3.513589
-3.318021 -4.588435 1.903477
-3.317630 -1.904934 4.586980
-3.317461 -4.964122 0.004659
-3.316740 -0.006116 4.962668
-3.316250 -4.588435 -1.894159
-3.315473 -3.515044 -3.504271
-3.315308 1.892702 4.586982
-3.314453 3.502814 3.513592
-3.313358 -1.904933 -4.577660
-3.312415 4.576204 1.903481
-3.312117 -0.006115 -4.953346
-3.311396 4.951891 0.004663
-3.311181 3.502815 -3.504267
-3.311035 1.892703 -4.577658
-3.310645 4.576204 -1.894155
-2.336830 -3.631668 3.630068
-2.335739 -4.740134 1.966763
-2.335336 -1.968364 4.738536
-2.334718 -5.127723 0.005117
-2.333974 -0.006718 5.126126
-2.333910 -4.740133 -1.956530
-2.333450 -3.631666 -3.619835
-2.332936 1.954929 4.738538
-2.332395 3.618235 3.630072
-2.330923 -1.968362 -4.728299
-2.329949 4.726700 1.966768
-2.329199 -0.006716 -5.115888
-2.329016 3.618236 -3.619831
-2.328523 1.954931 -4.728298
-2.328454 5.114290 0.005122
-2.328120 4.726701 -1.956525
-1.563983 -3.740023 3.738311
-1.562280 -4.881476 2.025561
-1.561865 -2.027274 4.879766
-1.560566 -5.280690 0.005478
-1.560503 -3.740022 -3.727357
-1.560397 -4.881476 -2.014606
-1.559799 -0.007191 5.278980
-1.559417 3.725645 3.738315
-1.559394 2.012893 4.879768
-1.557321 -2.027272 -4.868808
-1.556318 4.867097 2.025565
-1.555936 3.725646 -3.727354
-1.554882 -0.007189 -5.268020
-1.554849 2.012895 -4.868806
-1.554434 4.867097 -2.014601
-1.554115 5.266309 0.005483
-0.983811 -3.838527 3.836730
-0.981430 -5.011521 2.078935
-0.981003 -2.080733 5.009725
-0.980239 -3.838525 -3.825235
-0.979497 -5.011520 -2.067439
-0.979125 3.823438 3.836734
-0.979036 -5.422849 0.005749
-0.978467 2.065641 5.009727
-0.978248 -0.007547 5.421055
-0.976338 -2.080731 -4.998226
-0.975553 3.823440 -3.825231
-0.975308 4.996430 2.078940
-0.973802 2.065643 -4.998224
-0.973375 4.996431 -2.067434
-0.973199 -0.007545 -5.409552
-0.972412 5.407757 0.005754
-0.573464 -3.922062 3.920205
-0.570710 -5.124488 2.124128
-0.570274 -2.125986 5.122633
-0.569814 -3.922060 -3.908328
-0.568735 -5.124488 -2.112249
-0.568676 3.906471 3.920209
-0.567979 -5.548032 0.005940
-0.567683 2.110392 5.122635
-0.567173 -0.007798 5.546178
-0.565503 -2.125984 -5.110751
-0.565026 3.906472 -3.908324
-0.564451 5.108895 2.124133
-0.562912 2.110394 -5.110749
-0.562476 5.108896 -2.112245
-0.562008 -0.007796 -5.534293
-0.561202 5.532438 0.005945
-0.301873 -3.985618 3.983723
-0.299419 -5.213053 2.158595
-0.298975 -2.160492 5.211159
-0.298164 -3.985617 -3.971592
-0.297413 -5.213053 -2.146463
-0.297007 3.969695 3.983726
-0.296915 -5.646991 0.006067
-0.296342 2.144566 5.211161
-0.296095 -0.007964 5.645098
-0.294123 -2.160490 -5.199024
-0.293298 3.969697 -3.971588
-0.293052 5.197128 2.158600
-0.291489 2.144568 -5.199022
-0.291045 5.197129 -2.146458
-0.290837 -0.007962 -5.632959
-0.290017 5.631065 0.006072
-0.129542 -4.027219 4.025299
-0.128133 -5.269908 2.181487
-0.127684 -2.183409 5.267988
-0.126404 -5.708740 0.006146
-0.126105 -5.269907 -2.169195
-0.125795 -4.027218 -4.013007
-0.125575 -0.008069 5.706821
-0.125023 2.167273 5.267990
-0.124625 4.011086 4.025303
-0.122779 -2.183407 -5.255693
-0.121697 5.253773 2.181492
-0.120878 4.011087 -4.013003
-0.120260 -0.008066 -5.694524
-0.120117 2.167275 -5.255691
-0.119669 5.253774 -2.169190
-0.119431 5.692605 0.006151
-0.009773 -5.289529 2.189624
-0.009723 -4.041925 4.039987
-0.009322 -2.191563 5.287592
-0.009091 -5.729667 0.006201
-0.008258 -0.008140 5.727732
-0.007737 -5.289528 -2.177222
-0.007018 -3.657541 1.580805
-0.006889 -2.893715 2.891778
-0.006716 -1.582743 3.655604
-0.006708 -3.954278 0.006202
-0.006652 2.175282 5.287594
-0.006134 -0.008141 3.952342
-0.006031 -2.466046 1.272779
-0.005962 -4.041923 -4.027583
-0.005858 -1.274716 2.464110
-0.005550 -3.657540 -1.568400
-0.005359 -1.249694 1.247757
-0.005339 -2.549525 0.006203
-0.005301 -1.299506 0.006203
-0.005114 -0.008140 1.297570
-0.004969 -0.008141 2.547589
-0.004850 -2.466046 -1.260373
-0.004790 1.566461 3.655605
-0.004788 4.025644 4.039990
-0.004724 -0.008140 0.006204
-0.004718 -2.196852 2.194915
-0.004398 -2.191561 -5.275187
-0.004309 1.258435 2.464111
-0.004202 -1.249693 -1.235350
-0.004199 -2.893714 -2.879372
-0.003910 -0.008140 -1.285162
-0.003840 1.233413 1.247758
-0.003722 1.283226 0.006205
-0.003566 -1.274715 -2.451702
-0.003359 2.877433 2.891780
-0.003314 -1.582742 -3.643197
-0.003313 5.273250 2.189629
-0.003025 2.449765 1.272781
-0.002924 -0.008138 -5.715325
-0.002683 1.233413 -1.235348
-0.002677 -2.196852 -2.182507
-0.002600 -0.008140 -2.535181
-0.002554 3.641260 1.580808
-0.002455 -0.008139 -3.939934
-0.002230 2.533244 0.006206
-0.002092 5.713389 0.006206
-0.002041 2.180569 2.194917
-0.002017 1.258436 -2.451701
-0.001881 3.937998 0.006206
-0.001844 2.449766 -1.260370
-0.001727 2.175284 -5.275185
-0.001388 1.566463 -3.643196
-0.001277 5.273251 -2.177217
-0.001086 3.641260 -1.568396
-0.001027 4.025646 -4.027579
-0.000669 2.877435 -2.879369
0.000000 2.180570 -2.182505
POLYGONS 672 2688
3 56 55 50
3 52 50 39
3 55 48 43
3 50 43 36
3 48 30 26
3 43 26 24
3 36 24 23
3 39 23 20
3 30 12 10
3 26 10 8
3 24 8 6
3 23 6 4
3 56 52 47
3 51 47 34
3 52 40 35
3 47 35 29
3 40 20 18
3 35 18 16
3 29 16 17
3 34 17 19
3 20 4 2
3 18 2 1
3 16 1 0
3 17 0 3
3 56 51 49
3 54 49 41
3 51 38 37
3 49 37 33
3 38 19 21
3 37 21 22
3 33 22 25
3 41 25 27
3 19 3 5
3 21 5 7
3 22 7 9
3 25 9 11
3 56 54 53
3 55 53 45
3 54 46 44
3 53 44 42
3 46 27 31
3 44 31 28
3 42 28 32
3 45 32 30
3 27 11 13
3 31 13 15
3 28 15 14
3 32 14 12
3 305 313 312
3 300 312 308
3 313 325 318
3 312 318 327
3 325 329 323
3 318 323 315
3 327 315 303
3 308 303 292
3 329 326 317
3 323 317 304
3 315 304 291
3 303 291 285
3 305 300 297
3 299 297 293
3 300 301 295
3 297 295 306
3 301 292 289
3 295 289 288
3 306 288 287
3 293 287 290
3 292 285 283
3 289 283 282
3 288 282 281
3 287 281 284
3 305 299 309
3 311 309 314
3 299 298 302
3 309 302 321
3 298 290 296
3 302 296 310
3 321 310 316
3 314 316 324
3 290 284 286
3 296 286 294
3 310 294 307
3 316 307 319
3 305 311 320
3 313 320 330
3 311 322 328
3 320 328 337
3 322 324 332
3 328 332 336
3 337 336 334
3 330 334 329
3 324 319 331
3 332 331 335
3 336 335 333
3 334 333 326
3 280 275 317
3 275 273 304
3 273 272 291
3 272 271 285
3 271 267 283
3 267 265 282
3 265 266 281
3 266 268 284
3 268 269 286
3 269 270 294
3 270 274 307
3 274 277 319
3 277 278 331
3 278 276 335
3 276 279 333
3 279 280 326
3 264 260 275
3 260 254 273
3 254 256 272
3 256 257 271
3 257 251 267
3 251 249 265
3 249 250 266
3 250 255 268
3 255 253 269
3 253 252 270
3 252 258 274
3 258 263 277
3 263 261 278
3 261 259 276
3 259 262 279
3 262 264 280
3 248 244 260
3 244 238 254
3 238 240 256
3 240 241 257
3 241 235 251
3 235 233 249
3 233 234 250
3 234 239 255
3 239 237 253
3 237 236 252
3 236 242 258
3 242 247 263
3 247 245 261
3 245 243 259
3 243 246 262
3 246 248 264
3 232 228 244
3 228 222 238
3 222 224 240
3 224 225 241
3 225 219 235
3 219 217 233
3 217 218 234
3 218 223 239
3 223 221 237
3 221 220 236
3 220 226 242
3 226 231 247
3 231 229 245
3 229 227 243
3 227 230 246
3 230 232 248
3 216 211 228
3 211 208 222
3 208 209 224
3 209 207 225
3 207 203 219
3 203 201 217
3 201 202 218
3 202 204 223
3 204 206 221
3 206 205 220
3 205 210 226
3 210 213 231
3 213 214 229
3 214 212 227
3 212 215 230
3 215 216 232
3 199 195 211
3 195 193 208
3 193 192 209
3 192 189 207
3 189 187 203
3 187 185 201
3 185 186 202
3 186 188 204
3 188 190 206
3 190 191 205
3 191 194 210
3 194 196 213
3 196 198 214
3 198 197 212
3 197 200 215
3 200 199 216
3 181 179 195
3 179 177 193
3 177 176 192
3 176 173 189
3 173 171 187
3 171 169 185
3 169 170 186
3 170 172 188
3 172 174 190
3 174 175 191
3 175 178 194
3 178 180 196
3 180 183 198
3 183 182 197
3 182 184 200
3 184 181 199
3 165 163 179
3 163 161 177
3 161 160 176
3 160 157 173
3 157 155 171
3 155 153 169
3 153 154 170
3 154 156 172
3 156 158 174
3 158 159 175
3 159 162 178
3 162 164 180
3 164 167 183
3 167 166 182
3 166 168 184
3 168 165 181
3 149 147 163
3 147 145 161
3 145 144 160
3 144 141 157
3 141 139 155
3 139 137 153
3 137 138 154
3 138 140 156
3 140 142 158
3 142 143 159
3 143 146 162
3 146 148 164
3 148 151 167
3 151 150 166
3 150 152 168
3 152 149 165
3 133 131 147
3 131 129 145
3 129 128 144
3 128 125 141
3 125 123 139
3 123 121 137
3 121 122 138
3 122 124 140
3 124 126 142
3 126 127 143
3 127 130 146
3 130 132 148
3 132 135 151
3 135 134 150
3 134 136 152
3 136 133 149
3 118 115 131
3 115 113 129
3 113 112 128
3 112 109 125
3 109 107 123
3 107 105 121
3 105 106 122
3 106 108 124
3 108 110 126
3 110 111 127
3 111 114 130
3 114 116 132
3 116 119 135
3 119 117 134
3 117 120 136
3 120 118 133
3 101 99 115
3 99 97 113
3 97 96 112
3 96 93 109
3 93 91 107
3 91 89 105
3 89 90 106
3 90 92 108
3 92 94 110
3 94 95 111
3 95 98 114
3 98 100 116
3 100 103 119
3 103 102 117
3 102 104 120
3 104 101 118
3 85 83 99
3 83 81 97
3 81 79 96
3 79 77 93
3 77 75 91
3 75 73 89
3 73 74 90
3 74 76 92
3 76 78 94
3 78 80 95
3 80 82 98
3 82 84 100
3 84 86 103
3 86 87 102
3 87 88 104
3 88 85 101
3 69 67 83
3 67 65 81
3 65 63 79
3 63 61 77
3 61 59 75
3 59 57 73
3 57 58 74
3 58 60 76
3 60 62 78
3 62 64 80
3 64 66 82
3 66 68 84
3 68 70 86
3 70 72 87
3 72 71 88
3 71 69 85
3 12 10 67
3 10 8 65
3 8 6 63
3 6 4 61
3 4 2 59
3 2 1 57
3 1 0 58
3 0 3 60
3 3 5 62
3 5 7 64
3 7 9 66
3 9 11 68
3 11 13 70
3 13 15 72
3 15 14 71
3 14 12 69
3 56 50 52
3 52 39 40
3 55 43 50
3 50 36 39
3 48 26 43
3 43 24 36
3 36 23 39
3 39 20 40
3 30 10 26
3 26 8 24
3 24 6 23
3 23 4 20
3 56 47 51
3 51 34 38
3 52 35 47
3 47 29 34
3 40 18 35
3 35 16 29
3 29 17 34
3 34 19 38
3 20 2 18
3 18 1 16
3 16 0 17
3 17 3 19
3 56 49 54
3 54 41 46
3 51 37 49
3 49 33 41
3 38 21 37
3 37 22 33
3 33 25 41
3 41 27 46
3 19 5 21
3 21 7 22
3 22 9 25
3 25 11 27
3 56 53 55
3 55 45 48
3 54 44 53
3 53 42 45
3 46 31 44
3 44 28 42
3 42 32 45
3 45 30 48
3 27 13 31
3 31 15 28
3 28 14 32
3 32 12 30
3 305 312 300
3 300 308 301
3 313 318 312
3 312 327 308
3 325 323 318
3 318 315 327
3 327 303 308
3 308 292 301
3 329 317 323
3 323 304 315
3 315 291 303
3 303 285 292
3 305 297 299
3 299 293 298
3 300 295 297
3 297 306 293
3 301 289 295
3 295 288 306
3 306 287 293
3 293 290 298
3 292 283 289
3 289 282 288
3 288 281 287
3 287 284 290
3 305 309 311
3 311 314 322
3 299 302 309
3 309 321 314
3 298 296 302
3 302 310 321
3 321 316 314
3 314 324 322
3 290 286 296
3 296 294 310
3 310 307 316
3 316 319 324
3 305 320 313
3 313 330 325
3 311 328 320
3 320 337 330
3 322 332 328
3 328 336 337
3 337 334 330
3 330 329 325
3 324 331 332
3 332 335 336
3 336 333 334
3 334 326 329
3 280 317 326
3 275 304 317
3 273 291 304
3 272 285 291
3 271 283 285
3 267 282 283
3 265 281 282
3 266 284 281
3 268 286 284
3 269 294 286
3 270 307 294
3 274 319 307
3 277 331 319
3 278 335 331
3 276 333 335
3 279 326 333
3 264 275 280
3 260 273 275
3 254 272 273
3 256 271 272
3 257 267 271
3 251 265 267
3 249 266 265
3 250 268 266
3 255 269 268
3 253 270 269
3 252 274 270
3 258 277 274
3 263 278 277
3 261 276 278
3 259 279 276
3 262 280 279
3 248 260 264
3 244 254 260
3 238 256 254
3 240 257 256
3 241 251 257
3 235 249 251
3 233 250 249
3 234 255 250
3 239 253 255
3 237 252 253
3 236 258 252
3 242 263 258
3 247 261 263
3 245 259 261
3 243 262 259
3 246 264 262
3 232 244 248
3 228 238 244
3 222 240 238
3 224 241 240
3 225 235 241
3 219 233 235
3 217 234 233
3 218 239 234
3 223 237 239
3 221 236 237
3 220 242 236
3 226 247 242
3 231 245 247
3 229 243 245
3 227 246 243
3 230 248 246
3 216 228 232
3 211 222 228
3 208 224 222
3 209 225 224
3 207 219 225
3 203 217 219
3 201 218 217
3 202 223 218
3 204 221 223
3 206 220 221
3 205 226 220
3 210 231 226
3 213 229 231
3 214 227 229
3 212 230 227
3 215 232 230
3 199 211 216
3 195 208 211
3 193 209 208
3 192 207 209
3 189 203 207
3 187 201 203
3 185 202 201
3 186 204 202
3 188 206 204
3 190 205 206
3 191 210 205
3 194 213 210
3 196 214 213
3 198 212 214
3 197 215 212
3 200 216 215
3 181 195 199
3 179 193 195
3 177 192 193
3 176 189 192
3 173 187 189
3 171 185 187
3 169 186 185
3 170 188 186
3 172 190 188
3 174 191 190
3 175 194 191
3 178 196 194
3 180 198 196
3 183 197 198
3 182 200 197
3 184 199 200
3 165 179 181
3 163 177 179
3 161 176 177
3 160 173 176
3 157 171 173
3 155 169 171
3 153 170 169
3 154 172 170
3 156 174 172
3 158 175 174
3 159 178 175
3 162 180 178
3 164 183 180
3 167 182 183
3 166 184 182
3 168 181 184
3 149 163 165
3 147 161 163
3 145 160 161
3 144 157 160
3 141 155 157
3 139 153 155
3 137 154 153
3 138 156 154
3 140 158 156
3 142 159 158
3 143 162 159
3 146 164 162
3 148 167 164
3 151 166 167
3 150 168 166
3 152 165 168
3 133 147 149
3 131 145 147
3 129 144 145
3 128 141 144
3 125 139 141
3 123 137 139
3 121 138 137
3 122 140 138
3 124 142 140
3 126 143 142
3 127 146 143
3 130 148 146
3 132 151 148
3 135 150 151
3 134 152 150
3 136 149 152
3 118 131 133
3 115 129 131
3 113 128 129
3 112 125 128
3 109 123 125
3 107 121 123
3 105 122 121
3 106 124 122
3 108 126 124
3 110 127 126
3 111 130 127
3 114 132 130
3 116 135 132
3 119 134 135
3 117 136 134
3 120 133 136
3 101 115 118
3 99 113 115
3 97 112 113
3 96 109 112
3 93 107 109
3 91 105 107
3 89 106 105
3 90 108 106
3 92 110 108
3 94 111 110
3 95 114 111
3 98 116 114
3 100 119 116
3 103 117 119
3 102 120 117
3 104 118 120
3 85 99 101
3 83 97 99
3 81 96 97
3 79 93 96
3 77 91 93
3 75 89 91
3 73 90 89
3 74 92 90
3 76 94 92
3 78 95 94
3 80 98 95
3 82 100 98
3 84 103 100
3 86 102 103
3 87 104 102
3 88 101 104
3 69 83 85
3 67 81 83
3 65 79 81
3 63 77 79
3 61 75 77
3 59 73 75
3 57 74 73
3 58 76 74
3 60 78 76
3 62 80 78
3 64 82 80
3 66 84 82
3 68 86 84
3 70 87 86
3 72 88 87
3 71 85 88
3 12 67 69
3 10 65 67
3 8 63 65
3 6 61 63
3 4 59 61
3 2 57 59
3 1 58 57
3 0 60 58
3 3 62 60
3 5 64 62
3 7 66 64
3 9 68 66
3 11 70 68
3 13 72 70
3 15 71 72
3 14 69 71
POINT_DATA 338
SCALARS distance_mm float 1
LOOKUP_TABLE default
0.006737
0.024459
0.054868
0.046423
0.065372
0.083117
0.052395
0.119767
0.019060
0.139997
0.015276
0.137743
0.057328
0.139561
0.096381
0.122928
1.081720
1.188160
1.128507
1.249584
1.139323
1.267037
1.226052
1.131547
1.087418
1.322210
1.196464
1.342461
1.229545
1.751383
1.261775
1.323236
1.278951
1.895769
2.000062
1.959178
1.757178
2.091148
2.198768
1.960756
2.089160
2.139240
1.899171
2.009005
2.143024
2.100580
2.292310
2.656868
2.209547
2.801155
2.663223
3.037851
2.932098
2.805728
3.135255
3.049912
3.801966
0.007301
0.024407
0.031432
0.062916
0.035492
0.099184
0.021282
0.137330
0.011797
0.161120
0.049673
0.162294
0.091948
0.164564
0.127880
0.150912
0.097205
0.138390
0.085191
0.178376
0.091282
0.213382
0.100326
0.240257
0.126712
0.260009
0.164252
0.269180
0.202489
0.259995
0.243979
0.229910
0.303883
0.329506
0.283360
0.370558
0.286069
0.403826
0.427367
0.294115
0.320579
0.445244
0.352312
0.441314
0.374347
0.405124
0.433802
0.390861
0.512354
0.540840
0.500719
0.584994
0.482778
0.615536
0.630806
0.480088
0.490599
0.618099
0.510591
0.599149
0.551943
0.528537
0.576454
0.530935
0.656665
0.690293
0.633612
0.720836
0.604449
0.745454
0.740362
0.587954
0.598002
0.733642
0.596967
0.704599
0.597780
0.623548
0.651864
0.603947
0.682325
0.728756
0.646885
0.767756
0.597093
0.769873
0.765135
0.557988
0.547292
0.725366
0.536155
0.657532
0.537951
0.541496
0.596566
0.526708
0.688552
0.754030
0.622130
0.813948
0.588402
0.803099
0.773848
0.516794
0.467364
0.702096
0.457415
0.592514
0.442952
0.423511
0.524280
0.412574
0.794773
0.892267
0.756290
0.936795
0.637519
0.927302
0.880827
0.595057
0.553344
0.803205
0.471161
0.650387
0.528405
0.525105
0.593801
0.481081
1.131678
1.209373
1.063083
1.232322
0.945994
1.239055
1.198681
0.906400
0.895306
1.110822
0.857340
0.999610
0.850645
0.918863
0.862954
0.864669
1.558045
1.606563
1.473574
1.630683
1.580642
1.641140
1.371299
1.345483
1.314894
1.508509
1.323451
1.330637
1.454088
1.335830
1.376973
1.284682
1.919774
1.942125
1.804845
1.918740
1.970401
1.726470
1.963437
1.668961
1.730195
1.850224
1.705217
1.722037
1.682332
1.790020
1.844015
1.606191
2.164019
2.181552
2.048719
2.169350
2.208816
1.989622
2.197205
1.921035
1.990217
2.093605
1.987165
1.999532
1.927917
2.071794
2.094115
1.473178
2.331855
2.329628
2.206525
2.350588
2.364258
2.163118
2.353156
1.917965
2.155080
2.252040
2.171676
2.187562
2.079125
2.239406
2.268905
1.433453
2.432871
2.424791
2.311469
2.453200
2.464284
2.452843
2.267287
1.886624
2.269815
2.353334
2.250834
2.288185
2.380391
2.141777
2.347454
1.438273
2.505532
2.514344
2.395913
2.531714
2.356405
2.546233
3.622485
3.518751
3.499770
3.662963
1.895023
3.399025
4.485298
2.537634
4.369870
3.662083
5.211513
4.693270
5.699843
5.378580
4.393340
4.527821
3.335913
2.356261
6.372979
4.201866
2.436195
4.204276
5.261417
3.537602
5.422822
4.964373
5.309940
4.417927
3.305512
3.529145
2.274477
4.182432
2.465255
4.932811
4.232159
4.441553
3.349886
3.491630
4.326082
1.471167
3.961669
4.201703
3.051242
4.178300
2.163843
3.358453
2.430505
3.392661
2.378421
3.281409
3.921969
