# vtk DataFile Version 3.0
slug_compare
ASCII
DATASET POLYDATA
POINTS 338 float
-16.018733 -4.191916 -0.000446
-16.018606 -0.000441 -4.191922
-16.017710 -0.000439 4.191030
-16.017583 4.191036 -0.000447
-16.017375 -3.874180 -1.606049
-16.017306 -1.606044 -3.874186
-16.017031 -3.874179 1.605158
-16.016866 1.605162 -3.874186
-16.016478 -1.606043 3.873293
-16.016312 3.873299 -1.606051
-16.016037 1.605164 3.873293
-16.015969 3.873299 1.605156
-16.015572 -2.967485 -2.967490
-16.014938 -2.967484 2.966598
-16.014758 2.966603 -2.967491
-16.014124 2.966604 2.966597
-15.993590 -2.887468 -0.000449
-15.993503 -0.000444 -2.887473
-15.993001 -2.118810 -2.118814
-15.992885 -0.000443 2.886575
-15.992798 2.886581 -0.000450
-15.992734 -2.672869 -1.156353
-15.992688 -1.156349 -2.672875
-15.992548 -2.118809 2.117917
-15.992487 -2.672869 1.155456
-15.992420 2.117922 -2.118815
-15.992371 1.155461 -2.672875
-15.992116 -1.156348 2.671977
-15.992001 2.671982 -1.156354
-15.991966 2.117923 2.117916
-15.991799 1.155462 2.671976
-15.991753 2.671982 1.155455
-15.986677 -1.604407 -1.604412
-15.986334 -1.604407 1.603513
-15.986237 1.603518 -1.604413
-15.985894 1.603519 1.603513
-15.985785 -1.798164 -0.928698
-15.985758 -0.928693 -1.798169
-15.985586 -1.798163 0.927799
-15.985504 0.927804 -1.798169
-15.985374 -0.928693 1.797269
-15.985291 1.797274 -0.928699
-15.985119 0.927804 1.797269
-15.985093 1.797275 0.927798
-15.985008 -1.857785 -0.000450
-15.984952 -0.000445 -1.857791
-15.984554 -0.000444 1.856891
-15.984498 1.856896 -0.000450
-15.983978 -0.908048 -0.908053
-15.983784 -0.908048 0.907153
-15.983729 0.907158 -0.908053
-15.983535 0.907158 0.907153
-15.983064 -0.943750 -0.000450
-15.983036 -0.000445 -0.943755
-15.982834 -0.000445 0.942855
-15.982806 0.942860 -0.000450
-15.981872 -0.000445 -0.000450
-13.933849 -4.217928 -0.000669
-13.933722 -0.000727 -4.217871
-13.933156 -3.897809 -1.615611
-13.933087 -1.615669 -3.897752
-13.932820 -0.000725 4.216533
-13.932811 -3.897809 1.614274
-13.932692 4.216476 -0.000670
-13.932644 1.614216 -3.897753
-13.932254 -1.615668 3.896414
-13.932087 3.896357 -1.615613
-13.932045 -2.985022 -2.984964
-13.931811 1.614217 3.896413
-13.931742 3.896357 1.614272
-13.931407 -2.985021 2.983626
-13.931227 2.983569 -2.984966
-13.930588 2.983570 2.983625
-11.913181 -4.287603 -0.000885
-11.913051 -0.001004 -4.287486
-11.912975 -3.962259 -1.642520
-11.912905 -1.642639 -3.962141
-11.912624 -3.962259 1.640750
-11.912549 -3.034457 -3.034338
-11.912455 1.640631 -3.962142
-11.912134 -0.001002 4.285715
-11.912058 -1.642637 3.960371
-11.912005 4.285597 -0.000886
-11.911900 -3.034456 3.032568
-11.911888 3.960252 -1.642521
-11.911716 3.032449 -3.034339
-11.911607 1.640632 3.960370
-11.911537 3.960253 1.640749
-11.911067 3.032451 3.032567
-10.006898 -3.106557 -3.106380
-10.006744 -4.055954 -1.681637
-10.006677 -4.388832 -0.001089
-10.006672 -1.681813 -4.055779
-10.006544 -0.001265 -4.388657
-10.006384 -4.055954 1.679459
-10.006234 -3.106556 3.104203
-10.006211 1.679283 -4.055779
-10.006046 3.104026 -3.106382
-10.005804 -1.681812 4.053600
-10.005631 4.053425 -1.681638
-10.005606 -0.001264 4.386478
-10.005473 4.386303 -0.001090
-10.005382 3.104027 3.104202
-10.005343 1.679284 4.053600
-10.005272 4.053425 1.679458
-8.248750 -3.193446 -3.193216
-8.248171 -4.168983 -1.728718
-8.248098 -1.728948 -4.168754
-8.248068 -3.193444 3.190662
-8.247970 -4.510845 -0.001277
-8.247875 3.190433 -3.193217
-8.247833 -0.001507 -4.510617
-8.247802 -4.168983 1.726164
-8.247624 1.725934 -4.168755
-8.247206 -1.728946 4.166200
-8.247192 3.190434 3.190661
-8.247028 4.165971 -1.728719
-8.246869 -0.001505 4.508062
-8.246732 4.507833 -0.001278
-8.246732 1.725936 4.166199
-8.246658 4.165972 1.726163
-6.659201 -3.288604 -3.288326
-6.658498 -3.288602 3.285432
-6.658359 -4.293317 -1.780240
-6.658299 3.285155 -3.288327
-6.658283 -1.780518 -4.293040
-6.658090 -4.645229 -0.001447
-6.657979 -4.293317 1.777346
-6.657950 -0.001725 -4.644953
-6.657795 1.777069 -4.293041
-6.657596 3.285156 3.285431
-6.657365 -1.780516 4.290146
-6.657182 4.289869 -1.780242
-6.656956 -0.001723 4.642058
-6.656877 1.777070 4.290145
-6.656816 4.641781 -0.001448
-6.656801 4.289869 1.777345
-5.249857 -3.387752 -3.387432
-5.249133 -3.387751 3.384237
-5.248928 3.383917 -3.387433
-5.248893 -4.423287 -1.833896
-5.248815 -1.834216 -4.422968
-5.248582 -4.785919 -0.001598
-5.248501 -4.423287 1.830701
-5.248438 -0.001918 -4.785600
-5.248312 1.830380 -4.422968
-5.248204 3.383918 3.384236
-5.247869 -1.834215 4.419772
-5.247680 4.419452 -1.833897
-5.247414 -0.001917 4.782403
-5.247366 1.830382 4.419771
-5.247288 4.419453 1.830699
-5.247270 4.782084 -0.001599
-4.026300 -3.488683 -3.488326
-4.025554 -3.488682 3.484869
-4.025343 3.484512 -3.488327
-4.025277 -4.555428 -1.888535
-4.025197 -1.888892 -4.555071
-4.024892 -4.928832 -0.001728
-4.024874 -4.555427 1.885078
-4.024743 -0.002086 -4.928476
-4.024679 1.884720 -4.555072
-4.024597 3.484513 3.484868
-4.024223 -1.888891 4.551613
-4.024028 4.551256 -1.888537
-4.023705 1.884722 4.551612
-4.023689 -0.002084 4.925018
-4.023624 4.551257 1.885076
-4.023540 4.924662 -0.001730
-2.989919 -3.589337 -3.588948
-2.989151 -3.589335 3.585269
-2.988934 3.584881 -3.588949
-2.988780 -4.686898 -1.943052
-2.988697 -1.943441 -4.686510
-2.988365 -4.686897 1.939374
-2.988204 -5.070880 -0.001839
-2.988167 3.584882 3.585268
-2.988165 1.938985 -4.686511
-2.988050 -0.002228 -5.070493
-2.987695 -1.943440 4.682830
-2.987495 4.682442 -1.943054
-2.987162 1.938986 4.682830
-2.987079 4.682443 1.939372
-2.986966 -0.002227 5.066812
-2.986813 5.066425 -0.001841
-2.137757 -3.687391 -3.686976
-2.136968 -3.687389 3.683115
-2.136745 3.682701 -3.686978
-2.136338 -4.814770 -1.996206
-2.136253 -1.996621 -4.814356
-2.135957 3.682702 3.683114
-2.135911 -4.814770 1.992346
-2.135705 1.991931 -4.814357
-2.135409 -5.208983 -0.001930
-2.135252 -0.002345 -5.208570
-2.135223 -1.996620 4.810494
-2.135017 4.810081 -1.996208
-2.134676 1.991932 4.810494
-2.134591 4.810081 1.992344
-2.134138 -0.002344 5.204707
-2.133980 5.204294 -0.001932
-1.461834 -3.779483 -3.779048
-1.461026 -3.779481 3.775042
-1.460797 3.774607 -3.779049
-1.459989 3.774609 3.775041
-1.459971 -4.935442 -2.046110
-1.459883 -2.046545 -4.935008
-1.459533 -4.935441 2.042104
-1.459322 2.041669 -4.935008
-1.458828 -2.046544 4.931001
-1.458617 4.930567 -2.046112
-1.458586 -5.339969 -0.002003
-1.458424 -0.002438 -5.339536
-1.458267 2.041671 4.931000
-1.458180 4.930567 2.042103
-1.457282 -0.002437 5.335528
-1.457121 5.335094 -0.002005
-0.948003 -3.861364 -3.860913
-0.947178 -3.861362 3.856798
-0.946944 3.856347 -3.860914
-0.946119 3.856348 3.856796
-0.945697 -5.044332 -2.090375
-0.945608 -2.090826 -5.043882
-0.945250 -5.044331 2.086259
-0.945034 2.085808 -5.043882
-0.944529 -2.090824 5.039765
-0.944313 5.039315 -2.090377
-0.943956 2.085810 5.039764
-0.943929 -5.459672 -0.002058
-0.943867 5.039316 2.086257
-0.943764 -0.002509 -5.459222
-0.942596 -0.002507 5.455105
-0.942431 5.454655 -0.002060
-0.575473 -3.929192 -3.928730
-0.574633 -3.929190 3.924535
-0.574396 3.924073 -3.928731
-0.573556 3.924074 3.924533
-0.573025 -5.136901 -2.126963
-0.572934 -2.127426 -5.136439
-0.572570 -5.136900 2.122768
-0.572351 2.122306 -5.136440
-0.571835 -2.127424 5.132243
-0.571616 5.131782 -2.126965
-0.571252 2.122307 5.132242
-0.571164 -5.563020 -0.002098
-0.571161 5.131782 2.122766
-0.570996 -0.002560 -5.562560
-0.569806 -0.002558 5.558362
-0.569638 5.557902 -0.002100
-0.317008 -3.980546 -3.980077
-0.316157 -3.980545 3.975826
-0.315916 3.975356 -3.980078
-0.315065 3.975358 3.975825
-0.314966 -5.208491 -2.154807
-0.314874 -2.155277 -5.208022
-0.314506 -5.208490 2.150556
-0.314284 2.150086 -5.208023
-0.313761 -2.155275 5.203771
-0.313538 5.203302 -2.154809
-0.313421 -5.643039 -0.002125
-0.313251 -0.002596 -5.642571
-0.313170 2.150088 5.203770
-0.313078 5.203302 2.150554
-0.312044 -0.002594 5.638318
-0.311873 5.637850 -0.002127
-0.139288 -4.013846 -4.013371
-0.138430 -4.013844 4.009082
-0.138190 -5.253727 -2.173132
-0.138188 4.008607 -4.013372
-0.138097 -2.173608 -5.253252
-0.137726 -5.253726 2.168844
-0.137502 2.168368 -5.253253
-0.137329 4.008609 4.009081
-0.137307 -5.691992 -0.002144
-0.137135 -0.002620 -5.691519
-0.136974 -2.173606 5.248963
-0.136750 5.248489 -2.173134
-0.136378 2.168370 5.248962
-0.136285 5.248489 2.168842
-0.135917 -0.002618 5.687229
-0.135745 5.686755 -0.002146
-0.004176 -5.269230 -2.179667
-0.004105 -5.708383 -0.002158
-0.004083 -2.180147 -5.268751
-0.004071 -4.025664 -4.025185
-0.003932 -0.002638 -5.707905
-0.003710 -5.269229 2.175351
-0.003485 2.174871 -5.268752
-0.003256 -3.937005 -0.002159
-0.003225 -3.640835 -1.572052
-0.003211 -4.025662 4.020867
-0.003162 -1.572531 -3.640357
-0.003137 -0.002638 -3.936527
-0.003026 -2.879637 -2.879158
-0.002967 4.020388 -4.025186
-0.002956 -2.180145 5.264433
-0.002889 -3.640835 1.567735
-0.002732 1.567256 -3.640358
-0.002731 5.263955 -2.179669
-0.002711 -0.002636 5.703586
-0.002641 -0.002637 -0.002159
-0.002539 5.703109 -0.002160
-0.002508 -2.452670 -1.264642
-0.002476 -1.290004 -0.002159
-0.002472 -1.265121 -2.452192
-0.002437 -0.002637 -1.289526
-0.002411 -2.879636 2.874841
-0.002384 -1.572530 3.636039
-0.002359 2.174873 5.264433
-0.002334 -2.536181 -0.002159
-0.002295 -0.002636 3.932208
-0.002265 5.263956 2.175349
-0.002257 -0.002638 -2.535703
-0.002237 -2.452670 1.260324
-0.002237 2.874362 -2.879160
-0.002227 3.635561 -1.572054
-0.002176 3.931731 -0.002160
-0.002162 -0.002637 1.285207
-0.002143 -1.240153 -1.239675
-0.002125 1.259845 -2.452192
-0.002123 1.284729 -0.002160
-0.002107 4.020390 4.020866
-0.001953 1.567257 3.636038
-0.001948 -1.265120 2.447873
-0.001891 3.635561 1.567733
-0.001878 -1.240152 1.235356
-0.001835 2.447395 -1.264643
-0.001803 1.234878 -1.239675
-0.001715 -0.002637 2.531384
-0.001639 2.530906 -0.002160
-0.001622 2.874363 2.874840
-0.001601 1.259846 2.447873
-0.001565 2.447396 1.260323
-0.001538 1.234878 1.235355
-0.001065 -2.184444 -2.183965
-0.000599 -2.184443 2.179646
-0.000467 2.179168 -2.183966
0.000000 2.179169 2.179646
POLYGONS 672 2688
3 56 53 50
3 55 50 41
3 53 45 39
3 50 39 34
3 45 17 26
3 39 26 25
3 34 25 28
3 41 28 20
3 17 1 7
3 26 7 14
3 25 14 9
3 28 9 3
3 56 55 51
3 54 51 42
3 55 47 43
3 51 43 35
3 47 20 31
3 43 31 29
3 35 29 30
3 42 30 19
3 20 3 11
3 31 11 15
3 29 15 10
3 30 10 2
3 56 54 49
3 52 49 38
3 54 46 40
3 49 40 33
3 46 19 27
3 40 27 23
3 33 23 24
3 38 24 16
3 19 2 8
3 27 8 13
3 23 13 6
3 24 6 0
3 56 52 48
3 53 48 37
3 52 44 36
3 48 36 32
3 44 16 21
3 36 21 18
3 32 18 22
3 37 22 17
3 16 0 4
3 21 4 12
3 18 12 5
3 22 5 1
3 300 305 327
3 320 327 326
3 305 312 319
3 327 319 336
3 312 292 297
3 319 297 314
3 336 314 315
3 326 315 316
3 292 285 287
3 297 287 294
3 314 294 298
3 315 298 301
3 300 320 333
3 317 333 331
3 320 329 332
3 333 332 337
3 329 316 324
3 332 324 330
3 337 330 322
3 331 322 310
3 316 301 311
3 324 311 321
3 330 321 308
3 322 308 299
3 300 317 325
3 303 325 313
3 317 328 323
3 325 323 335
3 328 310 307
3 323 307 306
3 335 306 296
3 313 296 288
3 310 299 295
3 307 295 290
3 306 290 286
3 296 286 282
3 300 303 318
3 305 318 304
3 303 309 302
3 318 302 334
3 309 288 289
3 302 289 293
3 334 293 291
3 304 291 292
3 288 282 281
3 289 281 284
3 293 284 283
3 291 283 285
3 274 271 287
3 271 268 294
3 268 276 298
3 276 280 301
3 280 278 311
3 278 272 321
3 272 277 308
3 277 279 299
3 279 275 295
3 275 266 290
3 266 270 286
3 270 273 282
3 273 267 281
3 267 265 284
3 265 269 283
3 269 274 285
3 260 256 271
3 256 251 268
3 251 258 276
3 258 264 280
3 264 262 278
3 262 252 272
3 252 261 277
3 261 263 279
3 263 257 275
3 257 250 266
3 250 255 270
3 255 259 273
3 259 253 267
3 253 249 265
3 249 254 269
3 254 260 274
3 246 240 256
3 240 235 251
3 235 242 258
3 242 248 264
3 248 245 262
3 245 236 252
3 236 243 261
3 243 247 263
3 247 241 257
3 241 234 250
3 234 239 255
3 239 244 259
3 244 237 253
3 237 233 249
3 233 238 254
3 238 246 260
3 230 224 240
3 224 219 235
3 219 226 242
3 226 232 248
3 232 229 245
3 229 220 236
3 220 227 243
3 227 231 247
3 231 225 241
3 225 218 234
3 218 223 239
3 223 228 244
3 228 221 237
3 221 217 233
3 217 222 238
3 222 230 246
3 212 208 224
3 208 203 219
3 203 210 226
3 210 216 232
3 216 214 229
3 214 204 220
3 204 213 227
3 213 215 231
3 215 209 225
3 209 202 218
3 202 207 223
3 207 211 228
3 211 205 221
3 205 201 217
3 201 206 222
3 206 212 230
3 194 192 208
3 192 187 203
3 187 196 210
3 196 200 216
3 200 198 214
3 198 190 204
3 190 197 213
3 197 199 215
3 199 195 209
3 195 186 202
3 186 191 207
3 191 193 211
3 193 188 205
3 188 185 201
3 185 189 206
3 189 194 212
3 178 177 192
3 177 171 187
3 171 180 196
3 180 184 200
3 184 182 198
3 182 176 190
3 176 181 197
3 181 183 199
3 183 179 195
3 179 170 186
3 170 174 191
3 174 175 193
3 175 172 188
3 172 169 185
3 169 173 189
3 173 178 194
3 160 161 177
3 161 155 171
3 155 164 180
3 164 168 184
3 168 167 182
3 167 162 176
3 162 165 181
3 165 166 183
3 166 163 179
3 163 154 170
3 154 159 174
3 159 158 175
3 158 156 172
3 156 153 169
3 153 157 173
3 157 160 178
3 144 145 161
3 145 139 155
3 139 148 164
3 148 152 168
3 152 151 167
3 151 146 162
3 146 150 165
3 150 149 166
3 149 147 163
3 147 138 154
3 138 143 159
3 143 142 158
3 142 140 156
3 140 137 153
3 137 141 157
3 141 144 160
3 128 129 145
3 129 124 139
3 124 132 148
3 132 135 152
3 135 136 151
3 136 130 146
3 130 134 150
3 134 133 149
3 133 131 147
3 131 122 138
3 122 127 143
3 127 126 142
3 126 123 140
3 123 121 137
3 121 125 141
3 125 128 144
3 111 113 129
3 113 110 124
3 110 116 132
3 116 118 135
3 118 120 136
3 120 115 130
3 115 119 134
3 119 117 133
3 117 114 131
3 114 108 122
3 108 112 127
3 112 109 126
3 109 106 123
3 106 105 121
3 105 107 125
3 107 111 128
3 93 96 113
3 96 97 110
3 97 99 116
3 99 101 118
3 101 104 120
3 104 102 115
3 102 103 119
3 103 100 117
3 100 98 114
3 98 95 108
3 95 94 112
3 94 91 109
3 91 90 106
3 90 89 105
3 89 92 107
3 92 93 111
3 74 79 96
3 79 85 97
3 85 84 99
3 84 82 101
3 82 87 104
3 87 88 102
3 88 86 103
3 86 80 100
3 80 81 98
3 81 83 95
3 83 77 94
3 77 73 91
3 73 75 90
3 75 78 89
3 78 76 92
3 76 74 93
3 58 64 79
3 64 71 85
3 71 66 84
3 66 63 82
3 63 69 87
3 69 72 88
3 72 68 86
3 68 61 80
3 61 65 81
3 65 70 83
3 70 62 77
3 62 57 73
3 57 59 75
3 59 67 78
3 67 60 76
3 60 58 74
3 1 7 64
3 7 14 71
3 14 9 66
3 9 3 63
3 3 11 69
3 11 15 72
3 15 10 68
3 10 2 61
3 2 8 65
3 8 13 70
3 13 6 62
3 6 0 57
3 0 4 59
3 4 12 67
3 12 5 60
3 5 1 58
3 56 50 55
3 55 41 47
3 53 39 50
3 50 34 41
3 45 26 39
3 39 25 34
3 34 28 41
3 41 20 47
3 17 7 26
3 26 14 25
3 25 9 28
3 28 3 20
3 56 51 54
3 54 42 46
3 55 43 51
3 51 35 42
3 47 31 43
3 43 29 35
3 35 30 42
3 42 19 46
3 20 11 31
3 31 15 29
3 29 10 30
3 30 2 19
3 56 49 52
3 52 38 44
3 54 40 49
3 49 33 38
3 46 27 40
3 40 23 33
3 33 24 38
3 38 16 44
3 19 8 27
3 27 13 23
3 23 6 24
3 24 0 16
3 56 48 53
3 53 37 45
3 52 36 48
3 48 32 37
3 44 21 36
3 36 18 32
3 32 22 37
3 37 17 45
3 16 4 21
3 21 12 18
3 18 5 22
3 22 1 17
3 300 327 320
3 320 326 329
3 305 319 327
3 327 336 326
3 312 297 319
3 319 314 336
3 336 315 326
3 326 316 329
3 292 287 297
3 297 294 314
3 314 298 315
3 315 301 316
3 300 333 317
3 317 331 328
3 320 332 333
3 333 337 331
3 329 324 332
3 332 330 337
3 337 322 331
3 331 310 328
3 316 311 324
3 324 321 330
3 330 308 322
3 322 299 310
3 300 325 303
3 303 313 309
3 317 323 325
3 325 335 313
3 328 307 323
3 323 306 335
3 335 296 313
3 313 288 309
3 310 295 307
3 307 290 306
3 306 286 296
3 296 282 288
3 300 318 305
3 305 304 312
3 303 302 318
3 318 334 304
3 309 289 302
3 302 293 334
3 334 291 304
3 304 292 312
3 288 281 289
3 289 284 293
3 293 283 291
3 291 285 292
3 274 287 285
3 271 294 287
3 268 298 294
3 276 301 298
3 280 311 301
3 278 321 311
3 272 308 321
3 277 299 308
3 279 295 299
3 275 290 295
3 266 286 290
3 270 282 286
3 273 281 282
3 267 284 281
3 265 283 284
3 269 285 283
3 260 271 274
3 256 268 271
3 251 276 268
3 258 280 276
3 264 278 280
3 262 272 278
3 252 277 272
3 261 279 277
3 263 275 279
3 257 266 275
3 250 270 266
3 255 273 270
3 259 267 273
3 253 265 267
3 249 269 265
3 254 274 269
3 246 256 260
3 240 251 256
3 235 258 251
3 242 264 258
3 248 262 264
3 245 252 262
3 236 261 252
3 243 263 261
3 247 257 263
3 241 250 257
3 234 255 250
3 239 259 255
3 244 253 259
3 237 249 253
3 233 254 249
3 238 260 254
3 230 240 246
3 224 235 240
3 219 242 235
3 226 248 242
3 232 245 248
3 229 236 245
3 220 243 236
3 227 247 243
3 231 241 247
3 225 234 241
3 218 239 234
3 223 244 239
3 228 237 244
3 221 233 237
3 217 238 233
3 222 246 238
3 212 224 230
3 208 219 224
3 203 226 219
3 210 232 226
3 216 229 232
3 214 220 229
3 204 227 220
3 213 231 227
3 215 225 231
3 209 218 225
3 202 223 218
3 207 228 223
3 211 221 228
3 205 217 221
3 201 222 217
3 206 230 222
3 194 208 212
3 192 203 208
3 187 210 203
3 196 216 210
3 200 214 216
3 198 204 214
3 190 213 204
3 197 215 213
3 199 209 215
3 195 202 209
3 186 207 202
3 191 211 207
3 193 205 211
3 188 201 205
3 185 206 201
3 189 212 206
3 178 192 194
3 177 187 192
3 171 196 187
3 180 200 196
3 184 198 200
3 182 190 198
3 176 197 190
3 181 199 197
3 183 195 199
3 179 186 195
3 170 191 186
3 174 193 191
3 175 188 193
3 172 185 188
3 169 189 185
3 173 194 189
3 160 177 178
3 161 171 177
3 155 180 171
3 164 184 180
3 168 182 184
3 167 176 182
3 162 181 176
3 165 183 181
3 166 179 183
3 163 170 179
3 154 174 170
3 159 175 174
3 158 172 175
3 156 169 172
3 153 173 169
3 157 178 173
3 144 161 160
3 145 155 161
3 139 164 155
3 148 168 164
3 152 167 168
3 151 162 167
3 146 165 162
3 150 166 165
3 149 163 166
3 147 154 163
3 138 159 154
3 143 158 159
3 142 156 158
3 140 153 156
3 137 157 153
3 141 160 157
3 128 145 144
3 129 139 145
3 124 148 139
3 132 152 148
3 135 151 152
3 136 146 151
3 130 150 146
3 134 149 150
3 133 147 149
3 131 138 147
3 122 143 138
3 127 142 143
3 126 140 142
3 123 137 140
3 121 141 137
3 125 144 141
3 111 129 128
3 113 124 129
3 110 132 124
3 116 135 132
3 118 136 135
3 120 130 136
3 115 134 130
3 119 133 134
3 117 131 133
3 114 122 131
3 108 127 122
3 112 126 127
3 109 123 126
3 106 121 123
3 105 125 121
3 107 128 125
3 93 113 111
3 96 110 113
3 97 116 110
3 99 118 116
3 101 120 118
3 104 115 120
3 102 119 115
3 103 117 119
3 100 114 117
3 98 108 114
3 95 112 108
3 94 109 112
3 91 106 109
3 90 105 106
3 89 107 105
3 92 111 107
3 74 96 93
3 79 97 96
3 85 99 97
3 84 101 99
3 82 104 101
3 87 102 104
3 88 103 102
3 86 100 103
3 80 98 100
3 81 95 98
3 83 94 95
3 77 91 94
3 73 90 91
3 75 89 90
3 78 92 89
3 76 93 92
3 58 79 74
3 64 85 79
3 71 84 85
3 66 82 84
3 63 87 82
3 69 88 87
3 72 86 88
3 68 80 86
3 61 81 80
3 65 83 81
3 70 77 83
3 62 73 77
3 57 75 73
3 59 78 75
3 67 76 78
3 60 74 76
3 1 64 58
3 7 71 64
3 14 66 71
3 9 63 66
3 3 69 63
3 11 72 69
3 15 68 72
3 10 61 68
3 2 65 61
3 8 70 65
3 13 62 70
3 6 57 62
3 0 59 57
3 4 67 59
3 12 60 67
3 5 58 60
POINT_DATA 338
SCALARS distance_mm float 1
LOOKUP_TABLE default
0.087657
0.258155
0.165013
0.299626
0.117337
0.214282
0.081894
0.288956
0.130303
0.314698
0.203210
0.280011
0.161549
0.093272
0.311636
0.247818
1.217024
1.042988
1.037707
1.138767
1.001522
1.163231
1.067631
1.106508
1.200409
0.883175
0.987723
1.152463
0.961526
0.951323
1.074597
0.998348
1.764416
1.833684
1.606806
1.676450
2.043268
1.966551
2.090534
1.868436
2.051678
1.845982
1.950753
1.890667
2.245638
2.070534
2.166004
2.026868
2.747251
2.818069
2.586939
2.655301
3.157215
2.977685
3.073859
2.935745
3.860302
0.013697
0.065151
0.023987
0.054481
0.046052
0.019891
0.066187
0.083195
0.042004
0.079851
0.037124
0.057190
0.066302
0.035060
0.090431
0.064161
0.113294
0.163045
0.133477
0.150986
0.099443
0.143853
0.172751
0.127319
0.100044
0.191808
0.095851
0.186066
0.172934
0.144966
0.188820
0.167787
0.328113
0.297903
0.264247
0.351436
0.382235
0.242356
0.243471
0.401690
0.405441
0.264403
0.425202
0.288614
0.438785
0.383186
0.340197
0.413812
0.475478
0.432067
0.516203
0.353933
0.381704
0.597507
0.544706
0.358787
0.575831
0.385526
0.539364
0.601078
0.428129
0.611559
0.480831
0.595344
0.522950
0.394608
0.474219
0.639227
0.581268
0.424310
0.395399
0.616289
0.629497
0.591360
0.430206
0.665332
0.472545
0.525319
0.664095
0.644777
0.529340
0.359119
0.593521
0.464182
0.574013
0.417560
0.366634
0.582266
0.611805
0.572508
0.375081
0.634723
0.442060
0.488759
0.603103
0.646408
0.562451
0.350181
0.657239
0.503439
0.636103
0.453648
0.381995
0.612404
0.658908
0.561719
0.370544
0.644968
0.514473
0.443423
0.626914
0.700243
0.714542
0.487792
0.912796
0.661663
0.795206
0.519163
0.572005
0.784222
0.863110
0.827850
0.519363
0.902502
0.632366
0.813370
0.534587
0.929196
1.073724
0.829399
1.315884
0.996579
1.152001
1.119602
0.847851
1.269442
0.896037
1.223683
0.841883
1.357994
0.969250
1.239263
0.879332
1.320212
1.442554
1.206489
1.744003
1.516623
1.361970
1.541345
1.212574
1.665532
1.223804
1.824245
1.262393
1.642690
1.346044
1.667175
1.254615
1.711273
1.766786
1.527942
2.073460
1.854190
1.659210
1.848052
1.509017
1.991860
1.520813
2.203104
1.673047
1.550193
2.037860
1.992893
1.565774
1.873577
2.001925
1.748542
2.344366
2.103062
1.879093
2.078147
1.721469
2.238446
1.747351
2.482336
1.909503
1.771331
2.304364
2.232023
1.811287
1.808750
2.162143
1.917431
2.526669
2.275796
2.024831
2.240762
1.866080
2.410354
1.912131
2.665178
1.923466
2.399639
2.047701
2.490550
1.968305
1.803851
2.280054
2.024963
2.124941
2.643731
2.358145
1.970840
2.528146
2.396604
2.023266
2.517920
2.022312
2.786543
2.028327
2.623880
2.081843
1.828497
2.219968
2.118345
2.453190
2.378836
2.618358
2.063142
2.630004
3.266949
3.365684
2.116708
3.533098
3.653163
3.373610
2.680499
2.120207
3.215857
3.668243
2.890243
2.135040
6.345573
1.875853
4.258296
5.302972
4.378012
5.613485
3.140699
3.226379
2.042731
4.308529
3.267273
2.734780
4.623923
4.089026
3.672864
3.804362
3.483040
5.284649
5.106487
4.526032
5.700569
2.498037
3.342807
4.080046
3.664732
4.862578
4.589310
5.317719
4.291123
4.728530
3.437968
4.229978
4.443234
5.123278
4.076409
3.836976
4.321188
4.110221
